<?xml version="1.0" encoding="UTF-8" standalone="no"?>
<svg
   fill="none"
   viewBox="0 0 24 24"
   stroke-width="1.5"
   stroke="currentColor"
   class="size-6"
   version="1.1"
   id="svg1"
   sodipodi:docname="logout.svg"
   inkscape:version="1.3 (0e150ed, 2023-07-21)"
   xmlns:inkscape="http://www.inkscape.org/namespaces/inkscape"
   xmlns:sodipodi="http://sodipodi.sourceforge.net/DTD/sodipodi-0.dtd"
   xmlns="http://www.w3.org/2000/svg"
   xmlns:svg="http://www.w3.org/2000/svg">
  <defs
     id="defs1" />
  <sodipodi:namedview
     id="namedview1"
     pagecolor="#ffffff"
     bordercolor="#000000"
     borderopacity="0.25"
     inkscape:showpageshadow="2"
     inkscape:pageopacity="0.0"
     inkscape:pagecheckerboard="0"
     inkscape:deskcolor="#d1d1d1"
     inkscape:zoom="9.8333333"
     inkscape:cx="11.949153"
     inkscape:cy="12"
     inkscape:window-width="1312"
     inkscape:window-height="411"
     inkscape:window-x="0"
     inkscape:window-y="43"
     inkscape:window-maximized="0"
     inkscape:current-layer="svg1" />
  <path
     style="color:#000000;fill:#000000;stroke-linecap:round;stroke-linejoin:round;-inkscape-stroke:none"
     d="M 10.5,2.25 C 8.8520309,2.25 7.5,3.6020309 7.5,5.25 V 9 A 0.75,0.75 0 0 0 8.25,9.75 0.75,0.75 0 0 0 9,9 V 5.25 C 9,4.4126902 9.6626902,3.75 10.5,3.75 H 16.5 C 17.33731,3.75 18,4.4126902 18,5.25 V 18.75 C 18,19.58731 17.33731,20.25 16.5,20.25 H 10.5 C 9.6626902,20.25 9,19.58731 9,18.75 V 15 A 0.75,0.75 0 0 0 8.25,14.25 0.75,0.75 0 0 0 7.5,15 V 18.75 C 7.5,20.397969 8.8520309,21.75 10.5,21.75 H 16.5 C 18.147969,21.75 19.5,20.397969 19.5,18.75 V 5.25 C 19.5,3.6020309 18.147969,2.25 16.5,2.25 Z M 5.25,8.25 A 0.75,0.75 0 0 0 4.71875,8.46875 L 1.71875,11.46875 A 0.75,0.75 0 0 0 1.5,12 0.75,0.75 0 0 0 1.71875,12.53125 L 4.71875,15.53125 A 0.75,0.75 0 0 0 5.78125,15.53125 0.75,0.75 0 0 0 5.78125,14.46875 L 4.0625,12.75 H 15 A 0.75,0.75 0 0 0 15.75,12 0.75,0.75 0 0 0 15,11.25 H 4.0625 L 5.78125,9.53125 A 0.75,0.75 0 0 0 5.78125,8.46875 0.75,0.75 0 0 0 5.25,8.25 Z"
     id="path1" />
</svg>
