<?xml version="1.0" encoding="UTF-8" standalone="no"?>
<svg
   fill="none"
   viewBox="0 0 24 24"
   stroke-width="1.5"
   stroke="currentColor"
   class="size-6"
   version="1.1"
   id="svg1"
   sodipodi:docname="mail.svg"
   inkscape:version="1.3 (0e150ed, 2023-07-21)"
   xmlns:inkscape="http://www.inkscape.org/namespaces/inkscape"
   xmlns:sodipodi="http://sodipodi.sourceforge.net/DTD/sodipodi-0.dtd"
   xmlns="http://www.w3.org/2000/svg"
   xmlns:svg="http://www.w3.org/2000/svg">
  <defs
     id="defs1" />
  <sodipodi:namedview
     id="namedview1"
     pagecolor="#ffffff"
     bordercolor="#000000"
     borderopacity="0.25"
     inkscape:showpageshadow="2"
     inkscape:pageopacity="0.0"
     inkscape:pagecheckerboard="0"
     inkscape:deskcolor="#d1d1d1"
     inkscape:zoom="9.8333333"
     inkscape:cx="11.949153"
     inkscape:cy="12"
     inkscape:window-width="1312"
     inkscape:window-height="411"
     inkscape:window-x="0"
     inkscape:window-y="43"
     inkscape:window-maximized="0"
     inkscape:current-layer="svg1" />
  <path
     style="color:#000000;fill:#000000;stroke-linecap:round;stroke-linejoin:round;-inkscape-stroke:none"
     d="M 4.5,3.75 C 3.0595921,3.75 2.005693,4.8561902 1.7226562,6.2167969 A 0.75,0.75 0 0 0 1.5,6.75 V 6.9941406 17.25 C 1.5,18.897969 2.8520309,20.25 4.5,20.25 H 19.5 C 21.147969,20.25 22.5,18.897969 22.5,17.25 V 6.9921875 6.75 A 0.75,0.75 0 0 0 22.277344,6.2167969 C 21.994307,4.8561902 20.940408,3.75 19.5,3.75 Z M 4.5,5.25 H 19.5 C 20.33731,5.25 21,5.9126902 21,6.75 V 6.9921875 C 21.000058,7.5139691 20.731378,7.9958858 20.287109,8.2695313 L 12.787109,12.884766 C 12.303415,13.182696 11.696585,13.182696 11.212891,12.884766 L 3.7128906,8.2714844 C 3.2686225,7.9978389 2.9999421,7.5159222 3,6.9941406 V 6.75 C 3,5.9126902 3.6626902,5.25 4.5,5.25 Z M 21,9.5917969 V 17.25 C 21,18.08731 20.33731,18.75 19.5,18.75 H 4.5 C 3.6626902,18.75 3,18.08731 3,17.25 V 9.59375 L 10.425781,14.162109 C 11.389178,14.75551 12.610822,14.75551 13.574219,14.162109 Z"
     id="path1" />
</svg>
