<svg width="16" height="16" viewBox="0 0 16 16" fill="none" xmlns="http://www.w3.org/2000/svg">
<path d="M12.5 8.5H13.5C13.6326 8.5 13.7598 8.44732 13.8536 8.35355C13.9473 8.25979 14 8.13261 14 8C14 7.86739 13.9473 7.74022 13.8536 7.64645C13.7598 7.55268 13.6326 7.5 13.5 7.5H12.5C12.3674 7.5 12.2402 7.55268 12.1464 7.64645C12.0527 7.74022 12 7.86739 12 8C12 8.13261 12.0527 8.25979 12.1464 8.35355C12.2402 8.44732 12.3674 8.5 12.5 8.5ZM8 4C8 3.86739 8.05268 3.74021 8.14645 3.64645C8.24022 3.55268 8.36739 3.5 8.5 3.5H13.5C13.6326 3.5 13.7598 3.55268 13.8536 3.64645C13.9473 3.74021 14 3.86739 14 4C14 4.13261 13.9473 4.25979 13.8536 4.35355C13.7598 4.44732 13.6326 4.5 13.5 4.5H8.5C8.36739 4.5 8.24022 4.44732 8.14645 4.35355C8.05268 4.25979 8 4.13261 8 4ZM8 12C8 11.8674 8.05268 11.7402 8.14645 11.6464C8.24022 11.5527 8.36739 11.5 8.5 11.5H13.5C13.6326 11.5 13.7598 11.5527 13.8536 11.6464C13.9473 11.7402 14 11.8674 14 12C14 12.1326 13.9473 12.2598 13.8536 12.3536C13.7598 12.4473 13.6326 12.5 13.5 12.5H8.5C8.36739 12.5 8.24022 12.4473 8.14645 12.3536C8.05268 12.2598 8 12.1326 8 12ZM2.5 4.5H3.5C3.63261 4.5 3.75979 4.44732 3.85355 4.35355C3.94732 4.25979 4 4.13261 4 4C4 3.86739 3.94732 3.74021 3.85355 3.64645C3.75979 3.55268 3.63261 3.5 3.5 3.5H2.5C2.36739 3.5 2.24021 3.55268 2.14645 3.64645C2.05268 3.74021 2 3.86739 2 4C2 4.13261 2.05268 4.25979 2.14645 4.35355C2.24021 4.44732 2.36739 4.5 2.5 4.5ZM3.5 12.5H2.5C2.36739 12.5 2.24021 12.4473 2.14645 12.3536C2.05268 12.2598 2 12.1326 2 12C2 11.8674 2.05268 11.7402 2.14645 11.6464C2.24021 11.5527 2.36739 11.5 2.5 11.5H3.5C3.63261 11.5 3.75979 11.5527 3.85355 11.6464C3.94732 11.7402 4 11.8674 4 12C4 12.1326 3.94732 12.2598 3.85355 12.3536C3.75979 12.4473 3.63261 12.5 3.5 12.5ZM2 8C2 7.86739 2.05268 7.74022 2.14645 7.64645C2.24021 7.55268 2.36739 7.5 2.5 7.5H7.5C7.63261 7.5 7.75979 7.55268 7.85355 7.64645C7.94732 7.74022 8 7.86739 8 8C8 8.13261 7.94732 8.25979 7.85355 8.35355C7.75979 8.44732 7.63261 8.5 7.5 8.5H2.5C2.36739 8.5 2.24021 8.44732 2.14645 8.35355C2.05268 8.25979 2 8.13261 2 8ZM6 2.5C5.60218 2.5 5.22064 2.65804 4.93934 2.93934C4.65804 3.22064 4.5 3.60218 4.5 4C4.5 4.39782 4.65804 4.77936 4.93934 5.06066C5.22064 5.34196 5.60218 5.5 6 5.5C6.39782 5.5 6.77936 5.34196 7.06066 5.06066C7.34196 4.77936 7.5 4.39782 7.5 4C7.5 3.60218 7.34196 3.22064 7.06066 2.93934C6.77936 2.65804 6.39782 2.5 6 2.5ZM8.5 8C8.5 7.60218 8.65804 7.22064 8.93934 6.93934C9.22064 6.65804 9.60218 6.5 10 6.5C10.3978 6.5 10.7794 6.65804 11.0607 6.93934C11.342 7.22064 11.5 7.60218 11.5 8C11.5 8.39782 11.342 8.77936 11.0607 9.06066C10.7794 9.34196 10.3978 9.5 10 9.5C9.60218 9.5 9.22064 9.34196 8.93934 9.06066C8.65804 8.77936 8.5 8.39782 8.5 8ZM6 10.5C5.60218 10.5 5.22064 10.658 4.93934 10.9393C4.65804 11.2206 4.5 11.6022 4.5 12C4.5 12.3978 4.65804 12.7794 4.93934 13.0607C5.22064 13.342 5.60218 13.5 6 13.5C6.39782 13.5 6.77936 13.342 7.06066 13.0607C7.34196 12.7794 7.5 12.3978 7.5 12C7.5 11.6022 7.34196 11.2206 7.06066 10.9393C6.77936 10.658 6.39782 10.5 6 10.5Z" fill="#09090B"/>
</svg>
