<?xml version="1.0" encoding="UTF-8" ?>
<!DOCTYPE svg PUBLIC "-//W3C//DTD SVG 1.1//EN" "http://www.w3.org/Graphics/SVG/1.1/DTD/svg11.dtd">
<svg width="1366pt" height="768pt" viewBox="0 0 1366 768" version="1.1" xmlns="http://www.w3.org/2000/svg">
<g id="#ffffffff">
</g>
<g id="#555555ff">
<path fill="#555555" opacity="1.00" d=" M 485.58 0.00 L 497.68 0.00 C 485.70 7.55 475.55 17.68 466.30 28.33 C 444.15 52.87 424.71 79.67 405.65 106.63 C 386.39 134.34 367.27 162.15 347.70 189.64 C 310.31 243.02 270.49 295.11 223.41 340.40 C 195.18 368.03 164.62 393.74 130.01 413.06 C 109.02 424.31 85.97 432.67 61.96 433.58 C 40.45 435.03 18.76 429.36 0.00 418.95 L 0.00 408.91 C 15.06 416.91 31.87 421.78 48.94 422.55 C 61.37 423.16 73.80 421.12 85.76 417.82 C 101.72 413.69 116.61 406.25 130.68 397.78 C 153.95 384.10 174.84 366.85 195.12 349.15 C 223.10 323.46 249.56 296.08 273.84 266.87 C 320.35 211.13 360.34 150.42 402.66 91.54 C 419.73 68.58 437.43 45.99 457.19 25.25 C 466.08 16.24 475.07 7.16 485.58 0.00 Z" />
<path fill="#555555" opacity="1.00" d=" M 1024.35 0.00 L 1032.41 0.00 C 1024.21 10.94 1016.53 22.29 1007.81 32.84 C 987.22 58.65 964.26 82.83 937.90 102.82 C 923.04 113.82 906.50 123.40 888.06 126.57 C 873.27 128.76 857.91 125.46 844.87 118.28 C 834.17 112.46 824.05 104.93 812.03 102.05 C 800.54 99.44 788.56 103.44 779.50 110.57 C 763.48 122.75 753.05 141.99 751.54 162.04 C 750.88 171.05 753.25 180.10 758.36 187.55 C 757.39 188.09 756.42 188.62 755.46 189.16 C 751.76 182.31 748.79 174.81 748.82 166.91 C 747.98 146.12 757.82 125.86 772.70 111.71 C 782.36 102.08 796.16 95.97 809.94 97.78 C 822.76 99.62 833.90 106.78 845.02 112.94 C 858.26 120.33 874.10 122.97 888.98 119.90 C 904.41 116.38 918.39 108.42 931.00 99.06 C 967.68 71.84 997.29 36.48 1024.35 0.00 Z" />
<path fill="#555555" opacity="1.00" d=" M 1077.57 154.84 C 1083.76 149.21 1091.79 145.62 1100.07 144.44 C 1113.91 142.63 1128.27 145.02 1140.90 150.95 C 1151.42 156.06 1161.55 162.89 1168.25 172.67 C 1174.38 181.37 1176.88 192.49 1175.14 202.97 C 1173.22 215.45 1167.14 226.71 1163.89 238.82 C 1160.72 250.63 1161.31 263.38 1165.47 274.87 C 1169.21 285.66 1175.81 295.16 1182.94 303.97 C 1191.88 314.38 1201.91 323.79 1212.38 332.64 C 1229.63 346.41 1247.70 359.19 1266.63 370.57 C 1298.83 389.56 1332.73 405.38 1366.00 422.34 L 1366.00 429.26 C 1351.27 421.86 1336.50 414.52 1321.67 407.34 C 1290.52 392.58 1260.06 376.13 1231.83 356.29 C 1216.30 344.97 1200.96 333.22 1187.62 319.33 C 1176.88 308.32 1166.99 296.10 1161.21 281.70 C 1155.24 267.67 1154.43 251.52 1159.14 237.00 C 1163.18 223.98 1170.79 211.91 1171.67 198.04 C 1172.39 189.82 1169.85 181.54 1165.26 174.75 C 1158.53 164.36 1147.70 157.51 1136.62 152.53 C 1124.16 147.28 1110.11 145.28 1096.78 147.85 C 1089.84 149.14 1084.10 153.44 1078.76 157.79 C 1078.46 157.05 1077.87 155.58 1077.57 154.84 Z" />
<path fill="#555555" opacity="1.00" d=" M 205.85 524.86 C 214.99 516.99 226.44 510.00 238.95 510.84 C 241.44 511.08 244.86 511.10 245.58 514.14 C 234.60 510.99 223.22 515.80 214.80 522.79 C 202.00 533.37 191.91 546.75 181.89 559.89 C 159.78 590.49 138.76 621.87 116.12 652.09 C 96.61 677.92 74.63 702.00 49.77 722.79 C 34.85 735.10 18.59 746.38 0.00 752.34 L 0.00 745.37 C 23.52 736.05 43.38 719.75 61.67 702.64 C 90.49 675.39 114.75 643.82 137.65 611.56 C 159.18 581.79 178.84 550.12 205.85 524.86 Z" />
<path fill="#555555" opacity="1.00" d=" M 1297.20 648.11 C 1320.57 617.27 1341.11 584.32 1366.00 554.64 L 1366.00 563.14 C 1353.56 579.44 1341.90 596.31 1330.20 613.15 C 1309.97 641.37 1290.68 670.46 1267.16 696.12 C 1253.08 712.01 1237.66 726.76 1221.04 739.97 C 1202.82 754.14 1181.67 766.56 1158.11 768.00 L 1153.66 768.00 C 1144.22 767.21 1134.88 764.89 1126.41 760.62 C 1117.31 756.24 1109.28 749.96 1100.04 745.86 C 1091.46 742.05 1081.44 740.68 1072.40 743.65 C 1059.47 747.31 1049.76 757.44 1042.10 768.00 L 1038.36 768.00 C 1045.92 756.28 1056.23 745.80 1069.35 740.50 C 1077.81 737.39 1087.33 737.10 1095.91 739.96 C 1107.46 743.45 1117.18 750.91 1128.04 755.93 C 1143.61 763.29 1162.39 764.03 1178.29 757.22 C 1197.14 749.97 1213.31 737.44 1228.57 724.47 C 1254.27 701.74 1276.73 675.59 1297.20 648.11 Z" />
<path fill="#555555" opacity="1.00" d=" M 414.99 575.07 C 423.13 567.63 434.05 563.81 444.97 563.30 C 458.48 562.90 472.28 565.29 484.34 571.59 C 493.61 576.04 502.17 582.48 507.87 591.16 C 512.76 598.40 514.92 607.25 514.55 615.94 C 513.84 632.14 505.30 646.84 504.87 663.09 C 504.14 677.50 509.36 691.69 517.71 703.29 C 527.14 716.65 539.61 727.52 552.44 737.51 C 567.48 748.69 583.17 759.07 599.66 768.00 L 583.95 768.00 L 585.17 767.99 C 569.62 758.40 554.26 748.39 540.10 736.80 C 526.91 725.62 514.50 712.92 506.60 697.36 C 499.46 683.91 497.44 667.87 500.90 653.05 C 503.74 639.62 510.66 627.02 510.63 613.03 C 510.73 603.61 506.92 594.35 500.46 587.53 C 486.64 572.79 465.99 565.32 445.95 566.13 C 437.01 566.79 427.49 568.45 420.59 574.66 C 418.45 576.03 416.91 578.91 414.16 578.92 C 413.63 577.55 413.53 575.88 414.99 575.07 Z" />
</g>
</svg>
